<?xml version="1.0" encoding="iso-8859-1"?>
<!-- Generator: Adobe Illustrator 19.0.0, SVG Export Plug-In . SVG Version: 6.00 Build 0)  -->
<svg version="1.1" id="Layer_1" xmlns="http://www.w3.org/2000/svg" xmlns:xlink="http://www.w3.org/1999/xlink" x="0px" y="0px"
	 viewBox="0 0 473.939 473.939" style="enable-background:new 0 0 473.939 473.939;" xml:space="preserve">
<circle style="fill:#357180;" cx="236.969" cy="236.967" r="236.967"/>
<rect x="238.73" y="76.113" transform="matrix(-0.9397 -0.3419 0.3419 -0.9397 388.4569 558.7194)" style="fill:#AAAAAA;" width="9.481" height="338.022"/>
<circle style="fill:#70BFC8;" cx="233.826" cy="241.832" r="145.065"/>
<g>
	<path style="fill:#43B665;" d="M308.943,178.206c0,0-31.049,6.421-42.174,0.46c0,0-7.416-9.624-28.269-1.377
		c0,0-36.606,22.005-37.077,44.007c0,0-10.196,43.551,28.277,49.504c0,0,40.314-13.291,45.418,2.294c0,0,1.388,19.255,5.096,23.375
		c0,0,6.017,8.857,5.557,14.208c0,0-4.168,17.875,1.388,31.633c0,0,3.708,11.918,3.252,15.588c0,0,35.214-10.084,46.335-43.094
		c0,0,6.492-22.918,6.952-28.883c0,0,9.268-26.582,11.585-34.836c0,0,8.34-24.756-5.56-21.549c0,0-9.732-9.164-16.677-16.041
		C326.091,206.625,312.654,180.504,308.943,178.206z"/>
	<path style="fill:#43B665;" d="M339.992,212.59l-38.933-35.753c0,0,8.34-7.334,5.564-11.461c-2.784-4.131-8.808,1.381-13.901,1.381
		c-5.096,0-12.052,4.123-14.832,0.453c-2.776-3.671-4.636-2.754-7.413-0.453c-2.78,2.286-7.876,5.953-8.344,3.663
		c-0.46-2.294-8.804-1.373-9.276-3.663c-0.453-2.301,1.399-8.711-2.769-7.338c-4.165,1.37-10.196,5.957-11.132,8.251
		c-0.92,2.294-4.161,9.167-7.412,9.167c-3.237,0-11.577,1.83-12.973-0.92c-1.388-2.75-4.168-11.921-1.388-14.672
		c2.784-2.746,16.385,0.153,15.757-3.199c-0.629-3.364-2.234-10.743-0.187-11.79c2.043-1.044,7.603-12.965,11.304-14.339
		c3.708-1.381,13.444,3.663,14.84,0.46c0,0,0.457-9.628-1.396-11.005c-1.856-1.373-3.24-5.5-6.481-5.048
		c-3.252,0.464-4.636,3.671-2.32,5.048c2.32,1.377,4.161,6.877,2.78,6.877c-1.388,0-13.908,0.917-14.368-2.29
		c-0.464-3.207,1.392-11.001,5.553-13.755c4.176-2.746,12.98-2.294,15.764-0.917c2.784,1.377,6.024-1.377,6.952-3.663
		c0.932-2.286-13.175-9.964-17.351-9.964c0,0,109.836,8.198,128.684,120.486c0,0-11.701-38.559-19.57-40.849
		c0,0-4.176,2.754-6.96,2.29c-2.78-0.457-16.677-9.164-17.601-6.874c-0.932,2.294,6.485,10.084,14.365,10.993
		c7.873,0.924,8.34,1.841,8.808,5.964c0.46,4.127,1.848,10.541,0.924,14.668C355.752,208.462,350.181,220.84,339.992,212.59z"/>
	<path style="fill:#43B665;" d="M225.063,130.996c0,0-3.712,2.29-5.56,5.493c-1.856,3.21-1.856,5.964-1.856,5.964
		s2.354,1.369,4.726,1.384c2.376,0.007,8.718-2.297,8.718-5.508C231.087,135.12,225.063,130.996,225.063,130.996z"/>
	<path style="fill:#43B665;" d="M219.499,103.498c0,0-11.121,13.291-16.685,14.664c-5.56,1.377-14.821,5.957-17.145,7.794
		c-2.316,1.833-10.196-1.377-5.56-5.04c4.632-3.667,17.145-11.925,14.368-12.846c-2.784-0.909-15.293,7.798-20.393,11.465
		c-5.093,3.663-9.272,9.16-11.585,12.838c-2.32,3.663-1.856,13.287-6.952,15.121c-5.096,1.837-27.345,11.001-34.757,17.422
		c-7.412,6.413-15.397,11.151-18.645,17.568c-3.24,6.417,1.639-10.241,4.509-16.393c0,0,19.708-35.098,64.651-57.103
		C171.305,108.991,205.602,100.284,219.499,103.498z"/>
	<path style="fill:#43B665;" d="M89.745,264.848c0,0-4.64-24.752,0.46-27.049c5.089-2.286,6.63-2.769,11.128,1.837
		c4.479,4.614,10.653,12.382,12.969,16.498c2.316,4.131,10.66,9.167,10.66,12.378c0,3.214-1.852,11.005,0,14.672
		c1.856,3.667,4.636,4.131,8.808,5.961c4.176,1.826,12.052,4.58,16.685,8.711c4.629,4.131,11.121,9.167,9.732,14.668
		s-4.168,13.751-3.244,16.958c0.928,3.207,4.176,8.707,0.471,10.997c-3.712,2.294-6.492,1.837-6.028,5.961
		c0.468,4.123,5.104,16.943,6.499,19.24C157.879,365.674,100.091,341.083,89.745,264.848z"/>
	<path style="fill:#43B665;" d="M96.069,213.911c0.928-3.21,3.244-19.251,0.46-19.251c-5.441,20.056-5.242,19.802-7.416,34.836"/>
</g>
<path style="fill:#BFBEBE;" d="M397.189,299.017c32.097-91.434-16.004-191.568-107.438-223.662l-5.755,16.415
	c82.364,28.905,125.702,119.116,96.781,201.484c-28.913,82.375-119.116,125.709-201.492,96.793l-5.755,16.415
	C264.962,438.552,365.099,390.452,397.189,299.017z"/>
<path style="fill:#DFDFDF;" d="M235.54,410.751v63.15c0.475,0.004,0.943,0.037,1.418,0.037c4.857,0,9.669-0.195,14.451-0.479
	v-62.709L235.54,410.751L235.54,410.751z"/>
<path style="fill:#CDCDCE;" d="M397.189,299.017c32.082-91.397-15.97-191.486-107.329-223.624l-1.631,4.644
	c87.782,30.814,133.971,126.959,103.15,214.749c-30.814,87.79-126.955,133.978-214.749,103.157l-2.997,8.55
	C265.036,438.515,365.111,390.414,397.189,299.017z"/>
<g>
</g>
<g>
</g>
<g>
</g>
<g>
</g>
<g>
</g>
<g>
</g>
<g>
</g>
<g>
</g>
<g>
</g>
<g>
</g>
<g>
</g>
<g>
</g>
<g>
</g>
<g>
</g>
<g>
</g>
</svg>
